# MagicaVoxel @ Ephtracy

# group
o 

# material
mtllib dice.mtl
usemtl palette

# normals
vn -1 0 0
vn 1 0 0
vn 0 0 1
vn 0 0 -1
vn 0 -1 0
vn 0 1 0

# texcoords
vt 0.970703 0.5
vt 0.974609 0.5
vt 0.978516 0.5
vt 0.982422 0.5
vt 0.990234 0.5

# verts
v 0 2 -0.1
v 0 2 -0.9
v 0 2.1 0
v 0 2.1 -0.1
v 0 2.1 -0.2
v 0 2.1 -0.8
v 0 2.1 -0.9
v 0 2.1 -1
v 0 2.2 -0.1
v 0 2.2 -0.2
v 0 2.2 -0.8
v 0 2.2 -0.9
v 0 2.8 -0.1
v 0 2.8 -0.2
v 0 2.8 -0.8
v 0 2.8 -0.9
v 0 2.9 0
v 0 2.9 -0.1
v 0 2.9 -0.2
v 0 2.9 -0.8
v 0 2.9 -0.9
v 0 2.9 -1
v 0 3 -0.1
v 0 3 -0.9
v 0.1 2 0
v 0.1 2 -0.1
v 0.1 2 -0.9
v 0.1 2 -1
v 0.1 2.1 0
v 0.1 2.1 -0.1
v 0.1 2.1 -0.9
v 0.1 2.1 -1
v 0.1 2.9 0
v 0.1 2.9 -0.1
v 0.1 2.9 -0.9
v 0.1 2.9 -1
v 0.1 3 0
v 0.1 3 -0.1
v 0.1 3 -0.9
v 0.1 3 -1
v 0.9 2 0
v 0.9 2 -0.1
v 0.9 2 -0.9
v 0.9 2 -1
v 0.9 2.1 0
v 0.9 2.1 -0.1
v 0.9 2.1 -0.9
v 0.9 2.1 -1
v 0.9 2.9 0
v 0.9 2.9 -0.1
v 0.9 2.9 -0.9
v 0.9 2.9 -1
v 0.9 3 0
v 0.9 3 -0.1
v 0.9 3 -0.9
v 0.9 3 -1
v 1 2 -0.1
v 1 2 -0.9
v 1 2.1 0
v 1 2.1 -0.1
v 1 2.1 -0.2
v 1 2.1 -0.8
v 1 2.1 -0.9
v 1 2.1 -1
v 1 2.2 -0.1
v 1 2.2 -0.2
v 1 2.2 -0.8
v 1 2.2 -0.9
v 1 2.8 -0.1
v 1 2.8 -0.2
v 1 2.8 -0.8
v 1 2.8 -0.9
v 1 2.9 0
v 1 2.9 -0.1
v 1 2.9 -0.2
v 1 2.9 -0.8
v 1 2.9 -0.9
v 1 2.9 -1
v 1 3 -0.1
v 1 3 -0.9
v 0 2.1 0
v 0 2.9 0
v 0.1 2 0
v 0.1 2.1 0
v 0.1 2.2 0
v 0.1 2.8 0
v 0.1 2.9 0
v 0.1 3 0
v 0.2 2.1 0
v 0.2 2.2 0
v 0.2 2.8 0
v 0.2 2.9 0
v 0.8 2.1 0
v 0.8 2.2 0
v 0.8 2.8 0
v 0.8 2.9 0
v 0.9 2 0
v 0.9 2.1 0
v 0.9 2.2 0
v 0.9 2.8 0
v 0.9 2.9 0
v 0.9 3 0
v 1 2.1 0
v 1 2.9 0
v 0 2 -0.1
v 0 2.1 -0.1
v 0 2.9 -0.1
v 0 3 -0.1
v 0.1 2 -0.1
v 0.1 2.1 -0.1
v 0.1 2.9 -0.1
v 0.1 3 -0.1
v 0.9 2 -0.1
v 0.9 2.1 -0.1
v 0.9 2.9 -0.1
v 0.9 3 -0.1
v 1 2 -0.1
v 1 2.1 -0.1
v 1 2.9 -0.1
v 1 3 -0.1
v 0 2 -0.9
v 0 2.1 -0.9
v 0 2.9 -0.9
v 0 3 -0.9
v 0.1 2 -0.9
v 0.1 2.1 -0.9
v 0.1 2.9 -0.9
v 0.1 3 -0.9
v 0.9 2 -0.9
v 0.9 2.1 -0.9
v 0.9 2.9 -0.9
v 0.9 3 -0.9
v 1 2 -0.9
v 1 2.1 -0.9
v 1 2.9 -0.9
v 1 3 -0.9
v 0 2.1 -1
v 0 2.9 -1
v 0.1 2 -1
v 0.1 2.1 -1
v 0.1 2.2 -1
v 0.1 2.8 -1
v 0.1 2.9 -1
v 0.1 3 -1
v 0.2 2.1 -1
v 0.2 2.2 -1
v 0.2 2.8 -1
v 0.2 2.9 -1
v 0.8 2.1 -1
v 0.8 2.2 -1
v 0.8 2.8 -1
v 0.8 2.9 -1
v 0.9 2 -1
v 0.9 2.1 -1
v 0.9 2.2 -1
v 0.9 2.8 -1
v 0.9 2.9 -1
v 0.9 3 -1
v 1 2.1 -1
v 1 2.9 -1
v 0.1 2 0
v 0.9 2 0
v 0 2 -0.1
v 0.1 2 -0.1
v 0.2 2 -0.1
v 0.8 2 -0.1
v 0.9 2 -0.1
v 1 2 -0.1
v 0.1 2 -0.2
v 0.2 2 -0.2
v 0.8 2 -0.2
v 0.9 2 -0.2
v 0.1 2 -0.8
v 0.2 2 -0.8
v 0.8 2 -0.8
v 0.9 2 -0.8
v 0 2 -0.9
v 0.1 2 -0.9
v 0.2 2 -0.9
v 0.8 2 -0.9
v 0.9 2 -0.9
v 1 2 -0.9
v 0.1 2 -1
v 0.9 2 -1
v 0 2.1 0
v 0.1 2.1 0
v 0.9 2.1 0
v 1 2.1 0
v 0 2.1 -0.1
v 0.1 2.1 -0.1
v 0.9 2.1 -0.1
v 1 2.1 -0.1
v 0 2.1 -0.9
v 0.1 2.1 -0.9
v 0.9 2.1 -0.9
v 1 2.1 -0.9
v 0 2.1 -1
v 0.1 2.1 -1
v 0.9 2.1 -1
v 1 2.1 -1
v 0 2.9 0
v 0.1 2.9 0
v 0.9 2.9 0
v 1 2.9 0
v 0 2.9 -0.1
v 0.1 2.9 -0.1
v 0.9 2.9 -0.1
v 1 2.9 -0.1
v 0 2.9 -0.9
v 0.1 2.9 -0.9
v 0.9 2.9 -0.9
v 1 2.9 -0.9
v 0 2.9 -1
v 0.1 2.9 -1
v 0.9 2.9 -1
v 1 2.9 -1
v 0.1 3 0
v 0.9 3 0
v 0 3 -0.1
v 0.1 3 -0.1
v 0.2 3 -0.1
v 0.8 3 -0.1
v 0.9 3 -0.1
v 1 3 -0.1
v 0.1 3 -0.2
v 0.2 3 -0.2
v 0.8 3 -0.2
v 0.9 3 -0.2
v 0.1 3 -0.8
v 0.2 3 -0.8
v 0.8 3 -0.8
v 0.9 3 -0.8
v 0 3 -0.9
v 0.1 3 -0.9
v 0.2 3 -0.9
v 0.8 3 -0.9
v 0.9 3 -0.9
v 1 3 -0.9
v 0.1 3 -1
v 0.9 3 -1

# faces
f 4/5/1 2/5/1 1/5/1
f 5/5/1 2/5/1 4/5/1
f 6/5/1 2/5/1 5/5/1
f 7/5/1 2/5/1 6/5/1
f 9/5/1 4/5/1 3/5/1
f 9/5/1 5/5/1 4/5/1
f 10/4/1 6/4/1 5/4/1
f 10/5/1 5/5/1 9/5/1
f 11/5/1 8/5/1 7/5/1
f 11/4/1 6/4/1 10/4/1
f 11/5/1 7/5/1 6/5/1
f 12/5/1 8/5/1 11/5/1
f 13/4/1 10/4/1 9/4/1
f 13/5/1 9/5/1 3/5/1
f 13/4/1 12/4/1 11/4/1
f 13/4/1 11/4/1 10/4/1
f 14/4/1 12/4/1 13/4/1
f 15/4/1 12/4/1 14/4/1
f 16/5/1 8/5/1 12/5/1
f 16/4/1 12/4/1 15/4/1
f 17/5/1 13/5/1 3/5/1
f 17/5/1 14/5/1 13/5/1
f 18/5/1 14/5/1 17/5/1
f 19/4/1 15/4/1 14/4/1
f 19/5/1 14/5/1 18/5/1
f 20/5/1 16/5/1 15/5/1
f 20/4/1 15/4/1 19/4/1
f 21/5/1 8/5/1 16/5/1
f 21/5/1 16/5/1 20/5/1
f 22/5/1 8/5/1 21/5/1
f 23/5/1 20/5/1 19/5/1
f 23/5/1 21/5/1 20/5/1
f 23/5/1 19/5/1 18/5/1
f 24/5/1 21/5/1 23/5/1
f 29/5/1 26/5/1 25/5/1
f 30/5/1 26/5/1 29/5/1
f 31/5/1 28/5/1 27/5/1
f 32/5/1 28/5/1 31/5/1
f 37/5/1 34/5/1 33/5/1
f 38/5/1 34/5/1 37/5/1
f 39/5/1 36/5/1 35/5/1
f 40/5/1 36/5/1 39/5/1
f 41/5/2 42/5/2 45/5/2
f 45/5/2 42/5/2 46/5/2
f 43/5/2 44/5/2 47/5/2
f 47/5/2 44/5/2 48/5/2
f 49/5/2 50/5/2 53/5/2
f 53/5/2 50/5/2 54/5/2
f 51/5/2 52/5/2 55/5/2
f 55/5/2 52/5/2 56/5/2
f 57/5/2 58/5/2 60/5/2
f 60/5/2 58/5/2 61/5/2
f 61/5/2 58/5/2 62/5/2
f 62/5/2 58/5/2 63/5/2
f 59/5/2 60/5/2 65/5/2
f 60/5/2 61/5/2 65/5/2
f 61/4/2 62/4/2 66/4/2
f 65/5/2 61/5/2 66/5/2
f 63/5/2 64/5/2 67/5/2
f 66/4/2 62/4/2 67/4/2
f 62/5/2 63/5/2 67/5/2
f 67/5/2 64/5/2 68/5/2
f 65/4/2 66/4/2 69/4/2
f 59/5/2 65/5/2 69/5/2
f 67/4/2 68/4/2 69/4/2
f 66/4/2 67/4/2 69/4/2
f 69/4/2 68/4/2 70/4/2
f 70/4/2 68/4/2 71/4/2
f 68/5/2 64/5/2 72/5/2
f 71/4/2 68/4/2 72/4/2
f 59/5/2 69/5/2 73/5/2
f 69/5/2 70/5/2 73/5/2
f 73/5/2 70/5/2 74/5/2
f 70/4/2 71/4/2 75/4/2
f 74/5/2 70/5/2 75/5/2
f 71/5/2 72/5/2 76/5/2
f 75/4/2 71/4/2 76/4/2
f 72/5/2 64/5/2 77/5/2
f 76/5/2 72/5/2 77/5/2
f 77/5/2 64/5/2 78/5/2
f 75/5/2 76/5/2 79/5/2
f 76/5/2 77/5/2 79/5/2
f 74/5/2 75/5/2 79/5/2
f 79/5/2 77/5/2 80/5/2
f 84/5/3 82/5/3 81/5/3
f 85/5/3 82/5/3 84/5/3
f 86/5/3 82/5/3 85/5/3
f 87/5/3 82/5/3 86/5/3
f 89/5/3 84/5/3 83/5/3
f 89/5/3 85/5/3 84/5/3
f 90/3/3 86/3/3 85/3/3
f 90/5/3 85/5/3 89/5/3
f 91/5/3 88/5/3 87/5/3
f 91/3/3 86/3/3 90/3/3
f 91/5/3 87/5/3 86/5/3
f 92/5/3 88/5/3 91/5/3
f 93/3/3 90/3/3 89/3/3
f 93/5/3 89/5/3 83/5/3
f 93/3/3 92/3/3 91/3/3
f 93/3/3 91/3/3 90/3/3
f 94/3/3 92/3/3 93/3/3
f 95/3/3 92/3/3 94/3/3
f 96/5/3 88/5/3 92/5/3
f 96/3/3 92/3/3 95/3/3
f 97/5/3 93/5/3 83/5/3
f 97/5/3 94/5/3 93/5/3
f 98/5/3 94/5/3 97/5/3
f 99/3/3 95/3/3 94/3/3
f 99/5/3 94/5/3 98/5/3
f 100/5/3 96/5/3 95/5/3
f 100/3/3 95/3/3 99/3/3
f 101/5/3 88/5/3 96/5/3
f 101/5/3 96/5/3 100/5/3
f 102/5/3 88/5/3 101/5/3
f 103/5/3 100/5/3 99/5/3
f 103/5/3 101/5/3 100/5/3
f 103/5/3 99/5/3 98/5/3
f 104/5/3 101/5/3 103/5/3
f 109/5/3 106/5/3 105/5/3
f 110/5/3 106/5/3 109/5/3
f 111/5/3 108/5/3 107/5/3
f 112/5/3 108/5/3 111/5/3
f 117/5/3 114/5/3 113/5/3
f 118/5/3 114/5/3 117/5/3
f 119/5/3 116/5/3 115/5/3
f 120/5/3 116/5/3 119/5/3
f 121/5/4 122/5/4 125/5/4
f 125/5/4 122/5/4 126/5/4
f 123/5/4 124/5/4 127/5/4
f 127/5/4 124/5/4 128/5/4
f 129/5/4 130/5/4 133/5/4
f 133/5/4 130/5/4 134/5/4
f 131/5/4 132/5/4 135/5/4
f 135/5/4 132/5/4 136/5/4
f 137/5/4 138/5/4 140/5/4
f 140/5/4 138/5/4 141/5/4
f 141/5/4 138/5/4 142/5/4
f 142/5/4 138/5/4 143/5/4
f 139/5/4 140/5/4 145/5/4
f 140/5/4 141/5/4 145/5/4
f 141/3/4 142/3/4 146/3/4
f 145/5/4 141/5/4 146/5/4
f 143/5/4 144/5/4 147/5/4
f 146/3/4 142/3/4 147/3/4
f 142/5/4 143/5/4 147/5/4
f 147/5/4 144/5/4 148/5/4
f 145/3/4 146/3/4 149/3/4
f 139/5/4 145/5/4 149/5/4
f 147/3/4 148/3/4 149/3/4
f 146/3/4 147/3/4 149/3/4
f 149/3/4 148/3/4 150/3/4
f 150/3/4 148/3/4 151/3/4
f 148/5/4 144/5/4 152/5/4
f 151/3/4 148/3/4 152/3/4
f 139/5/4 149/5/4 153/5/4
f 149/5/4 150/5/4 153/5/4
f 153/5/4 150/5/4 154/5/4
f 150/3/4 151/3/4 155/3/4
f 154/5/4 150/5/4 155/5/4
f 151/5/4 152/5/4 156/5/4
f 155/3/4 151/3/4 156/3/4
f 152/5/4 144/5/4 157/5/4
f 156/5/4 152/5/4 157/5/4
f 157/5/4 144/5/4 158/5/4
f 155/5/4 156/5/4 159/5/4
f 156/5/4 157/5/4 159/5/4
f 154/5/4 155/5/4 159/5/4
f 159/5/4 157/5/4 160/5/4
f 164/5/5 162/5/5 161/5/5
f 165/5/5 162/5/5 164/5/5
f 166/5/5 162/5/5 165/5/5
f 167/5/5 162/5/5 166/5/5
f 169/5/5 164/5/5 163/5/5
f 169/5/5 165/5/5 164/5/5
f 170/2/5 166/2/5 165/2/5
f 170/5/5 165/5/5 169/5/5
f 171/5/5 168/5/5 167/5/5
f 171/2/5 166/2/5 170/2/5
f 171/5/5 167/5/5 166/5/5
f 172/5/5 168/5/5 171/5/5
f 173/2/5 170/2/5 169/2/5
f 173/5/5 169/5/5 163/5/5
f 173/2/5 172/2/5 171/2/5
f 173/2/5 171/2/5 170/2/5
f 174/2/5 172/2/5 173/2/5
f 175/2/5 172/2/5 174/2/5
f 176/5/5 168/5/5 172/5/5
f 176/2/5 172/2/5 175/2/5
f 177/5/5 173/5/5 163/5/5
f 177/5/5 174/5/5 173/5/5
f 178/5/5 174/5/5 177/5/5
f 179/2/5 175/2/5 174/2/5
f 179/5/5 174/5/5 178/5/5
f 180/5/5 176/5/5 175/5/5
f 180/2/5 175/2/5 179/2/5
f 181/5/5 168/5/5 176/5/5
f 181/5/5 176/5/5 180/5/5
f 182/5/5 168/5/5 181/5/5
f 183/5/5 180/5/5 179/5/5
f 183/5/5 181/5/5 180/5/5
f 183/5/5 179/5/5 178/5/5
f 184/5/5 181/5/5 183/5/5
f 189/5/5 186/5/5 185/5/5
f 190/5/5 186/5/5 189/5/5
f 191/5/5 188/5/5 187/5/5
f 192/5/5 188/5/5 191/5/5
f 197/5/5 194/5/5 193/5/5
f 198/5/5 194/5/5 197/5/5
f 199/5/5 196/5/5 195/5/5
f 200/5/5 196/5/5 199/5/5
f 201/5/6 202/5/6 205/5/6
f 205/5/6 202/5/6 206/5/6
f 203/5/6 204/5/6 207/5/6
f 207/5/6 204/5/6 208/5/6
f 209/5/6 210/5/6 213/5/6
f 213/5/6 210/5/6 214/5/6
f 211/5/6 212/5/6 215/5/6
f 215/5/6 212/5/6 216/5/6
f 217/5/6 218/5/6 220/5/6
f 220/5/6 218/5/6 221/5/6
f 221/5/6 218/5/6 222/5/6
f 222/5/6 218/5/6 223/5/6
f 219/5/6 220/5/6 225/5/6
f 220/5/6 221/5/6 225/5/6
f 221/2/6 222/2/6 226/2/6
f 225/5/6 221/5/6 226/5/6
f 223/5/6 224/5/6 227/5/6
f 226/2/6 222/2/6 227/2/6
f 222/5/6 223/5/6 227/5/6
f 227/5/6 224/5/6 228/5/6
f 225/2/6 226/2/6 229/2/6
f 219/5/6 225/5/6 229/5/6
f 227/2/6 228/2/6 229/2/6
f 226/2/6 227/2/6 229/2/6
f 229/2/6 228/2/6 230/2/6
f 230/2/6 228/2/6 231/2/6
f 228/5/6 224/5/6 232/5/6
f 231/2/6 228/2/6 232/2/6
f 219/5/6 229/5/6 233/5/6
f 229/5/6 230/5/6 233/5/6
f 233/5/6 230/5/6 234/5/6
f 230/2/6 231/2/6 235/2/6
f 234/5/6 230/5/6 235/5/6
f 231/5/6 232/5/6 236/5/6
f 235/2/6 231/2/6 236/2/6
f 232/5/6 224/5/6 237/5/6
f 236/5/6 232/5/6 237/5/6
f 237/5/6 224/5/6 238/5/6
f 235/5/6 236/5/6 239/5/6
f 236/5/6 237/5/6 239/5/6
f 234/5/6 235/5/6 239/5/6
f 239/5/6 237/5/6 240/5/6
