# MagicaVoxel @ Ephtracy

# group
o 

# material
mtllib dice.mtl
usemtl palette

# normals
vn -1 0 0
vn 1 0 0
vn 0 0 1
vn 0 0 -1
vn 0 -1 0
vn 0 1 0

# texcoords
vt 0.912109 0.5
vt 0.916016 0.5
vt 0.919922 0.5
vt 0.970703 0.5
vt 0.990234 0.5

# verts
v 0 2 0
v 0 2 -1
v 0 2.1 -0.1
v 0 2.1 -0.9
v 0 2.2 -0.2
v 0 2.2 -0.8
v 0 2.8 -0.2
v 0 2.8 -0.8
v 0 2.9 -0.1
v 0 2.9 -0.9
v 0 3 0
v 0 3 -1
v 1 2 0
v 1 2 -1
v 1 2.1 -0.1
v 1 2.1 -0.9
v 1 2.2 -0.2
v 1 2.2 -0.8
v 1 2.8 -0.2
v 1 2.8 -0.8
v 1 2.9 -0.1
v 1 2.9 -0.9
v 1 3 0
v 1 3 -1
v 0 2 0
v 0 3 0
v 0.1 2.1 0
v 0.1 2.9 0
v 0.2 2.2 0
v 0.2 2.8 0
v 0.8 2.2 0
v 0.8 2.8 0
v 0.9 2.1 0
v 0.9 2.9 0
v 1 2 0
v 1 3 0
v 0 2 -1
v 0 3 -1
v 0.1 2.1 -1
v 0.1 2.9 -1
v 0.2 2.2 -1
v 0.2 2.8 -1
v 0.8 2.2 -1
v 0.8 2.8 -1
v 0.9 2.1 -1
v 0.9 2.9 -1
v 1 2 -1
v 1 3 -1
v 0 2 0
v 1 2 0
v 0.1 2 -0.1
v 0.9 2 -0.1
v 0.2 2 -0.2
v 0.8 2 -0.2
v 0.2 2 -0.8
v 0.8 2 -0.8
v 0.1 2 -0.9
v 0.9 2 -0.9
v 0 2 -1
v 1 2 -1
v 0 3 0
v 1 3 0
v 0.1 3 -0.1
v 0.9 3 -0.1
v 0.2 3 -0.2
v 0.8 3 -0.2
v 0.2 3 -0.8
v 0.8 3 -0.8
v 0.1 3 -0.9
v 0.9 3 -0.9
v 0 3 -1
v 1 3 -1

# faces
f 3/3/1 2/3/1 1/3/1
f 4/3/1 2/3/1 3/3/1
f 5/1/1 4/1/1 3/1/1
f 6/1/1 4/1/1 5/1/1
f 7/1/1 5/1/1 3/1/1
f 7/2/1 6/2/1 5/2/1
f 8/1/1 4/1/1 6/1/1
f 8/2/1 6/2/1 7/2/1
f 9/3/1 3/3/1 1/3/1
f 9/1/1 7/1/1 3/1/1
f 9/1/1 8/1/1 7/1/1
f 10/1/1 4/1/1 8/1/1
f 10/1/1 8/1/1 9/1/1
f 10/3/1 2/3/1 4/3/1
f 11/3/1 9/3/1 1/3/1
f 11/3/1 10/3/1 9/3/1
f 12/3/1 2/3/1 10/3/1
f 12/3/1 10/3/1 11/3/1
f 13/3/2 14/3/2 15/3/2
f 15/3/2 14/3/2 16/3/2
f 15/1/2 16/1/2 17/1/2
f 17/1/2 16/1/2 18/1/2
f 15/1/2 17/1/2 19/1/2
f 17/2/2 18/2/2 19/2/2
f 18/1/2 16/1/2 20/1/2
f 19/2/2 18/2/2 20/2/2
f 13/3/2 15/3/2 21/3/2
f 15/1/2 19/1/2 21/1/2
f 19/1/2 20/1/2 21/1/2
f 20/1/2 16/1/2 22/1/2
f 21/1/2 20/1/2 22/1/2
f 16/3/2 14/3/2 22/3/2
f 13/3/2 21/3/2 23/3/2
f 21/3/2 22/3/2 23/3/2
f 22/3/2 14/3/2 24/3/2
f 23/3/2 22/3/2 24/3/2
f 27/3/3 26/3/3 25/3/3
f 28/3/3 26/3/3 27/3/3
f 29/1/3 28/1/3 27/1/3
f 30/1/3 28/1/3 29/1/3
f 31/1/3 29/1/3 27/1/3
f 31/2/3 30/2/3 29/2/3
f 32/1/3 28/1/3 30/1/3
f 32/2/3 30/2/3 31/2/3
f 33/3/3 27/3/3 25/3/3
f 33/1/3 31/1/3 27/1/3
f 33/1/3 32/1/3 31/1/3
f 34/1/3 28/1/3 32/1/3
f 34/1/3 32/1/3 33/1/3
f 34/3/3 26/3/3 28/3/3
f 35/3/3 33/3/3 25/3/3
f 35/3/3 34/3/3 33/3/3
f 36/3/3 26/3/3 34/3/3
f 36/3/3 34/3/3 35/3/3
f 37/3/4 38/3/4 39/3/4
f 39/3/4 38/3/4 40/3/4
f 39/1/4 40/1/4 41/1/4
f 41/1/4 40/1/4 42/1/4
f 39/1/4 41/1/4 43/1/4
f 41/2/4 42/2/4 43/2/4
f 42/1/4 40/1/4 44/1/4
f 43/2/4 42/2/4 44/2/4
f 37/3/4 39/3/4 45/3/4
f 39/1/4 43/1/4 45/1/4
f 43/1/4 44/1/4 45/1/4
f 44/1/4 40/1/4 46/1/4
f 45/1/4 44/1/4 46/1/4
f 40/3/4 38/3/4 46/3/4
f 37/3/4 45/3/4 47/3/4
f 45/3/4 46/3/4 47/3/4
f 46/3/4 38/3/4 48/3/4
f 47/3/4 46/3/4 48/3/4
f 51/3/5 50/3/5 49/3/5
f 52/3/5 50/3/5 51/3/5
f 53/1/5 52/1/5 51/1/5
f 54/1/5 52/1/5 53/1/5
f 55/1/5 53/1/5 51/1/5
f 55/2/5 54/2/5 53/2/5
f 56/1/5 52/1/5 54/1/5
f 56/2/5 54/2/5 55/2/5
f 57/3/5 51/3/5 49/3/5
f 57/1/5 55/1/5 51/1/5
f 57/1/5 56/1/5 55/1/5
f 58/1/5 52/1/5 56/1/5
f 58/1/5 56/1/5 57/1/5
f 58/3/5 50/3/5 52/3/5
f 59/3/5 57/3/5 49/3/5
f 59/3/5 58/3/5 57/3/5
f 60/3/5 50/3/5 58/3/5
f 60/3/5 58/3/5 59/3/5
f 61/3/6 62/3/6 63/3/6
f 63/3/6 62/3/6 64/3/6
f 63/1/6 64/1/6 65/1/6
f 65/1/6 64/1/6 66/1/6
f 63/1/6 65/1/6 67/1/6
f 65/2/6 66/2/6 67/2/6
f 66/1/6 64/1/6 68/1/6
f 67/2/6 66/2/6 68/2/6
f 61/3/6 63/3/6 69/3/6
f 63/1/6 67/1/6 69/1/6
f 67/1/6 68/1/6 69/1/6
f 68/1/6 64/1/6 70/1/6
f 69/1/6 68/1/6 70/1/6
f 64/3/6 62/3/6 70/3/6
f 61/3/6 69/3/6 71/3/6
f 69/3/6 70/3/6 71/3/6
f 70/3/6 62/3/6 72/3/6
f 71/3/6 70/3/6 72/3/6
