# MagicaVoxel @ Ephtracy

# group
o 

# material
mtllib laser box.mtl
usemtl palette

# normals
vn -1 0 0
vn 1 0 0
vn 0 0 1
vn 0 0 -1
vn 0 -1 0
vn 0 1 0

# texcoords
vt 0.951172 0.5
vt 0.955078 0.5
vt 0.958984 0.5
vt 0.986328 0.5
vt 0.990234 0.5

# verts
v 0 2.4 -0.1
v 0 2.4 -0.2
v 0 2.4 -0.8
v 0 2.4 -0.9
v 0 2.5 -0.2
v 0 2.5 -0.8
v 0 2.6 -0.2
v 0 2.6 -0.3
v 0 2.6 -0.4
v 0 2.6 -0.6
v 0 2.6 -0.7
v 0 2.6 -0.8
v 0 2.9 -0.2
v 0 2.9 -0.3
v 0 2.9 -0.4
v 0 2.9 -0.6
v 0 2.9 -0.7
v 0 2.9 -0.8
v 0 3 -0.1
v 0 3 -0.9
v 0.1 2.4 0
v 0.1 2.4 -0.1
v 0.1 2.4 -0.9
v 0.1 2.4 -1
v 0.1 2.6 -0.2
v 0.1 2.6 -0.3
v 0.1 2.6 -0.4
v 0.1 2.6 -0.6
v 0.1 2.6 -0.7
v 0.1 2.6 -0.8
v 0.1 2.9 -0.2
v 0.1 2.9 -0.3
v 0.1 2.9 -0.4
v 0.1 2.9 -0.6
v 0.1 2.9 -0.7
v 0.1 2.9 -0.8
v 0.1 3 0
v 0.1 3 -0.1
v 0.1 3 -0.9
v 0.1 3 -1
v 0.2 2.2 -0.4
v 0.2 2.2 -0.6
v 0.2 2.5 -0.4
v 0.2 2.5 -0.6
v 0.3 2 -0.4
v 0.3 2 -0.6
v 0.3 2.2 -0.3
v 0.3 2.2 -0.4
v 0.3 2.2 -0.6
v 0.3 2.2 -0.7
v 0.3 2.5 -0.3
v 0.3 2.5 -0.4
v 0.3 2.5 -0.6
v 0.3 2.5 -0.7
v 0.3 2.6 0
v 0.3 2.6 -0.1
v 0.3 2.6 -0.9
v 0.3 2.6 -1
v 0.3 2.9 0
v 0.3 2.9 -0.1
v 0.3 2.9 -0.9
v 0.3 2.9 -1
v 0.4 2 -0.3
v 0.4 2 -0.4
v 0.4 2 -0.6
v 0.4 2 -0.7
v 0.4 2.2 -0.2
v 0.4 2.2 -0.3
v 0.4 2.2 -0.4
v 0.4 2.2 -0.6
v 0.4 2.2 -0.7
v 0.4 2.2 -0.8
v 0.4 2.5 -0.2
v 0.4 2.5 -0.3
v 0.4 2.5 -0.7
v 0.4 2.5 -0.8
v 0.6 2.3 -0.3
v 0.6 2.3 -0.4
v 0.6 2.3 -0.6
v 0.6 2.3 -0.7
v 0.6 2.5 -0.3
v 0.6 2.5 -0.4
v 0.6 2.5 -0.6
v 0.6 2.5 -0.7
v 0.6 2.6 0
v 0.6 2.6 -0.1
v 0.6 2.6 -0.9
v 0.6 2.6 -1
v 0.6 2.9 0
v 0.6 2.9 -0.1
v 0.6 2.9 -0.9
v 0.6 2.9 -1
v 0.7 2.3 -0.4
v 0.7 2.3 -0.6
v 0.7 2.5 -0.4
v 0.7 2.5 -0.6
v 0.8 2.4 0
v 0.8 2.4 -0.1
v 0.8 2.4 -0.9
v 0.8 2.4 -1
v 0.8 2.5 0
v 0.8 2.5 -0.1
v 0.8 2.5 -0.9
v 0.8 2.5 -1
v 0.8 2.6 0
v 0.8 2.6 -0.1
v 0.8 2.6 -0.9
v 0.8 2.6 -1
v 0.8 2.9 0
v 0.8 2.9 -0.1
v 0.8 2.9 -0.9
v 0.8 2.9 -1
v 0.9 2.4 -0.1
v 0.9 2.4 -0.2
v 0.9 2.4 -0.8
v 0.9 2.4 -0.9
v 0.9 2.5 -0.1
v 0.9 2.5 -0.2
v 0.9 2.5 -0.8
v 0.9 2.5 -0.9
v 0.1 2.4 -0.1
v 0.1 2.4 -0.2
v 0.1 2.4 -0.8
v 0.1 2.4 -0.9
v 0.1 2.5 -0.1
v 0.1 2.5 -0.2
v 0.1 2.5 -0.8
v 0.1 2.5 -0.9
v 0.2 2.4 0
v 0.2 2.4 -0.1
v 0.2 2.4 -0.9
v 0.2 2.4 -1
v 0.2 2.5 0
v 0.2 2.5 -0.1
v 0.2 2.5 -0.9
v 0.2 2.5 -1
v 0.2 2.6 0
v 0.2 2.6 -0.1
v 0.2 2.6 -0.9
v 0.2 2.6 -1
v 0.2 2.9 0
v 0.2 2.9 -0.1
v 0.2 2.9 -0.9
v 0.2 2.9 -1
v 0.3 2.3 -0.4
v 0.3 2.3 -0.6
v 0.3 2.5 -0.4
v 0.3 2.5 -0.6
v 0.4 2.3 -0.3
v 0.4 2.3 -0.4
v 0.4 2.3 -0.6
v 0.4 2.3 -0.7
v 0.4 2.5 -0.3
v 0.4 2.5 -0.4
v 0.4 2.5 -0.6
v 0.4 2.5 -0.7
v 0.4 2.6 0
v 0.4 2.6 -0.1
v 0.4 2.6 -0.9
v 0.4 2.6 -1
v 0.4 2.9 0
v 0.4 2.9 -0.1
v 0.4 2.9 -0.9
v 0.4 2.9 -1
v 0.6 2 -0.3
v 0.6 2 -0.4
v 0.6 2 -0.6
v 0.6 2 -0.7
v 0.6 2.2 -0.2
v 0.6 2.2 -0.3
v 0.6 2.2 -0.4
v 0.6 2.2 -0.6
v 0.6 2.2 -0.7
v 0.6 2.2 -0.8
v 0.6 2.5 -0.2
v 0.6 2.5 -0.3
v 0.6 2.5 -0.7
v 0.6 2.5 -0.8
v 0.7 2 -0.4
v 0.7 2 -0.6
v 0.7 2.2 -0.3
v 0.7 2.2 -0.4
v 0.7 2.2 -0.6
v 0.7 2.2 -0.7
v 0.7 2.5 -0.3
v 0.7 2.5 -0.4
v 0.7 2.5 -0.6
v 0.7 2.5 -0.7
v 0.7 2.6 0
v 0.7 2.6 -0.1
v 0.7 2.6 -0.9
v 0.7 2.6 -1
v 0.7 2.9 0
v 0.7 2.9 -0.1
v 0.7 2.9 -0.9
v 0.7 2.9 -1
v 0.8 2.2 -0.4
v 0.8 2.2 -0.6
v 0.8 2.5 -0.4
v 0.8 2.5 -0.6
v 0.9 2.4 0
v 0.9 2.4 -0.1
v 0.9 2.4 -0.9
v 0.9 2.4 -1
v 0.9 2.6 -0.2
v 0.9 2.6 -0.3
v 0.9 2.6 -0.4
v 0.9 2.6 -0.6
v 0.9 2.6 -0.7
v 0.9 2.6 -0.8
v 0.9 2.9 -0.2
v 0.9 2.9 -0.3
v 0.9 2.9 -0.4
v 0.9 2.9 -0.6
v 0.9 2.9 -0.7
v 0.9 2.9 -0.8
v 0.9 3 0
v 0.9 3 -0.1
v 0.9 3 -0.9
v 0.9 3 -1
v 1 2.4 -0.1
v 1 2.4 -0.2
v 1 2.4 -0.8
v 1 2.4 -0.9
v 1 2.5 -0.2
v 1 2.5 -0.8
v 1 2.6 -0.2
v 1 2.6 -0.3
v 1 2.6 -0.4
v 1 2.6 -0.6
v 1 2.6 -0.7
v 1 2.6 -0.8
v 1 2.9 -0.2
v 1 2.9 -0.3
v 1 2.9 -0.4
v 1 2.9 -0.6
v 1 2.9 -0.7
v 1 2.9 -0.8
v 1 3 -0.1
v 1 3 -0.9
v 0.1 2.4 0
v 0.1 3 0
v 0.2 2.4 0
v 0.2 2.5 0
v 0.2 2.6 0
v 0.2 2.9 0
v 0.3 2.6 0
v 0.3 2.9 0
v 0.4 2.6 0
v 0.4 2.9 0
v 0.6 2.6 0
v 0.6 2.9 0
v 0.7 2.6 0
v 0.7 2.9 0
v 0.8 2.4 0
v 0.8 2.5 0
v 0.8 2.6 0
v 0.8 2.9 0
v 0.9 2.4 0
v 0.9 3 0
v 0 2.4 -0.1
v 0 3 -0.1
v 0.1 2.4 -0.1
v 0.1 3 -0.1
v 0.2 2.6 -0.1
v 0.2 2.9 -0.1
v 0.3 2.6 -0.1
v 0.3 2.9 -0.1
v 0.4 2.6 -0.1
v 0.4 2.9 -0.1
v 0.6 2.6 -0.1
v 0.6 2.9 -0.1
v 0.7 2.6 -0.1
v 0.7 2.9 -0.1
v 0.8 2.6 -0.1
v 0.8 2.9 -0.1
v 0.9 2.4 -0.1
v 0.9 3 -0.1
v 1 2.4 -0.1
v 1 3 -0.1
v 0.4 2.2 -0.2
v 0.4 2.5 -0.2
v 0.6 2.2 -0.2
v 0.6 2.5 -0.2
v 0 2.6 -0.3
v 0 2.9 -0.3
v 0.1 2.6 -0.3
v 0.1 2.9 -0.3
v 0.3 2.2 -0.3
v 0.3 2.5 -0.3
v 0.4 2 -0.3
v 0.4 2.2 -0.3
v 0.4 2.5 -0.3
v 0.6 2 -0.3
v 0.6 2.2 -0.3
v 0.6 2.5 -0.3
v 0.7 2.2 -0.3
v 0.7 2.5 -0.3
v 0.9 2.6 -0.3
v 0.9 2.9 -0.3
v 1 2.6 -0.3
v 1 2.9 -0.3
v 0.2 2.2 -0.4
v 0.2 2.5 -0.4
v 0.3 2 -0.4
v 0.3 2.2 -0.4
v 0.3 2.5 -0.4
v 0.4 2 -0.4
v 0.4 2.2 -0.4
v 0.6 2 -0.4
v 0.6 2.2 -0.4
v 0.7 2 -0.4
v 0.7 2.2 -0.4
v 0.7 2.5 -0.4
v 0.8 2.2 -0.4
v 0.8 2.5 -0.4
v 0 2.6 -0.6
v 0 2.9 -0.6
v 0.1 2.6 -0.6
v 0.1 2.9 -0.6
v 0.3 2.3 -0.6
v 0.3 2.5 -0.6
v 0.4 2.3 -0.6
v 0.4 2.5 -0.6
v 0.6 2.3 -0.6
v 0.6 2.5 -0.6
v 0.7 2.3 -0.6
v 0.7 2.5 -0.6
v 0.9 2.6 -0.6
v 0.9 2.9 -0.6
v 1 2.6 -0.6
v 1 2.9 -0.6
v 0.4 2.3 -0.7
v 0.4 2.5 -0.7
v 0.6 2.3 -0.7
v 0.6 2.5 -0.7
v 0 2.4 -0.8
v 0 2.5 -0.8
v 0 2.6 -0.8
v 0 2.9 -0.8
v 0.1 2.4 -0.8
v 0.1 2.5 -0.8
v 0.1 2.6 -0.8
v 0.1 2.9 -0.8
v 0.9 2.4 -0.8
v 0.9 2.5 -0.8
v 0.9 2.6 -0.8
v 0.9 2.9 -0.8
v 1 2.4 -0.8
v 1 2.5 -0.8
v 1 2.6 -0.8
v 1 2.9 -0.8
v 0.1 2.4 -0.9
v 0.1 2.5 -0.9
v 0.2 2.4 -0.9
v 0.2 2.5 -0.9
v 0.8 2.4 -0.9
v 0.8 2.5 -0.9
v 0.9 2.4 -0.9
v 0.9 2.5 -0.9
v 0.1 2.4 -0.1
v 0.1 2.5 -0.1
v 0.2 2.4 -0.1
v 0.2 2.5 -0.1
v 0.8 2.4 -0.1
v 0.8 2.5 -0.1
v 0.9 2.4 -0.1
v 0.9 2.5 -0.1
v 0 2.4 -0.2
v 0 2.5 -0.2
v 0 2.6 -0.2
v 0 2.9 -0.2
v 0.1 2.4 -0.2
v 0.1 2.5 -0.2
v 0.1 2.6 -0.2
v 0.1 2.9 -0.2
v 0.9 2.4 -0.2
v 0.9 2.5 -0.2
v 0.9 2.6 -0.2
v 0.9 2.9 -0.2
v 1 2.4 -0.2
v 1 2.5 -0.2
v 1 2.6 -0.2
v 1 2.9 -0.2
v 0.4 2.3 -0.3
v 0.4 2.5 -0.3
v 0.6 2.3 -0.3
v 0.6 2.5 -0.3
v 0 2.6 -0.4
v 0 2.9 -0.4
v 0.1 2.6 -0.4
v 0.1 2.9 -0.4
v 0.3 2.3 -0.4
v 0.3 2.5 -0.4
v 0.4 2.3 -0.4
v 0.4 2.5 -0.4
v 0.6 2.3 -0.4
v 0.6 2.5 -0.4
v 0.7 2.3 -0.4
v 0.7 2.5 -0.4
v 0.9 2.6 -0.4
v 0.9 2.9 -0.4
v 1 2.6 -0.4
v 1 2.9 -0.4
v 0.2 2.2 -0.6
v 0.2 2.5 -0.6
v 0.3 2 -0.6
v 0.3 2.2 -0.6
v 0.3 2.5 -0.6
v 0.4 2 -0.6
v 0.4 2.2 -0.6
v 0.6 2 -0.6
v 0.6 2.2 -0.6
v 0.7 2 -0.6
v 0.7 2.2 -0.6
v 0.7 2.5 -0.6
v 0.8 2.2 -0.6
v 0.8 2.5 -0.6
v 0 2.6 -0.7
v 0 2.9 -0.7
v 0.1 2.6 -0.7
v 0.1 2.9 -0.7
v 0.3 2.2 -0.7
v 0.3 2.5 -0.7
v 0.4 2 -0.7
v 0.4 2.2 -0.7
v 0.4 2.5 -0.7
v 0.6 2 -0.7
v 0.6 2.2 -0.7
v 0.6 2.5 -0.7
v 0.7 2.2 -0.7
v 0.7 2.5 -0.7
v 0.9 2.6 -0.7
v 0.9 2.9 -0.7
v 1 2.6 -0.7
v 1 2.9 -0.7
v 0.4 2.2 -0.8
v 0.4 2.5 -0.8
v 0.6 2.2 -0.8
v 0.6 2.5 -0.8
v 0 2.4 -0.9
v 0 3 -0.9
v 0.1 2.4 -0.9
v 0.1 3 -0.9
v 0.2 2.6 -0.9
v 0.2 2.9 -0.9
v 0.3 2.6 -0.9
v 0.3 2.9 -0.9
v 0.4 2.6 -0.9
v 0.4 2.9 -0.9
v 0.6 2.6 -0.9
v 0.6 2.9 -0.9
v 0.7 2.6 -0.9
v 0.7 2.9 -0.9
v 0.8 2.6 -0.9
v 0.8 2.9 -0.9
v 0.9 2.4 -0.9
v 0.9 3 -0.9
v 1 2.4 -0.9
v 1 3 -0.9
v 0.1 2.4 -1
v 0.1 3 -1
v 0.2 2.4 -1
v 0.2 2.5 -1
v 0.2 2.6 -1
v 0.2 2.9 -1
v 0.3 2.6 -1
v 0.3 2.9 -1
v 0.4 2.6 -1
v 0.4 2.9 -1
v 0.6 2.6 -1
v 0.6 2.9 -1
v 0.7 2.6 -1
v 0.7 2.9 -1
v 0.8 2.4 -1
v 0.8 2.5 -1
v 0.8 2.6 -1
v 0.8 2.9 -1
v 0.9 2.4 -1
v 0.9 3 -1
v 0.4 2 -0.3
v 0.6 2 -0.3
v 0.3 2 -0.4
v 0.4 2 -0.4
v 0.6 2 -0.4
v 0.7 2 -0.4
v 0.3 2 -0.6
v 0.4 2 -0.6
v 0.6 2 -0.6
v 0.7 2 -0.6
v 0.4 2 -0.7
v 0.6 2 -0.7
v 0.4 2.2 -0.2
v 0.6 2.2 -0.2
v 0.3 2.2 -0.3
v 0.4 2.2 -0.3
v 0.6 2.2 -0.3
v 0.7 2.2 -0.3
v 0.2 2.2 -0.4
v 0.3 2.2 -0.4
v 0.4 2.2 -0.4
v 0.6 2.2 -0.4
v 0.7 2.2 -0.4
v 0.8 2.2 -0.4
v 0.2 2.2 -0.6
v 0.3 2.2 -0.6
v 0.4 2.2 -0.6
v 0.6 2.2 -0.6
v 0.7 2.2 -0.6
v 0.8 2.2 -0.6
v 0.3 2.2 -0.7
v 0.4 2.2 -0.7
v 0.6 2.2 -0.7
v 0.7 2.2 -0.7
v 0.4 2.2 -0.8
v 0.6 2.2 -0.8
v 0.1 2.4 0
v 0.2 2.4 0
v 0.8 2.4 0
v 0.9 2.4 0
v 0 2.4 -0.1
v 0.1 2.4 -0.1
v 0.2 2.4 -0.1
v 0.8 2.4 -0.1
v 0.9 2.4 -0.1
v 1 2.4 -0.1
v 0 2.4 -0.2
v 0.1 2.4 -0.2
v 0.9 2.4 -0.2
v 1 2.4 -0.2
v 0 2.4 -0.8
v 0.1 2.4 -0.8
v 0.9 2.4 -0.8
v 1 2.4 -0.8
v 0 2.4 -0.9
v 0.1 2.4 -0.9
v 0.2 2.4 -0.9
v 0.8 2.4 -0.9
v 0.9 2.4 -0.9
v 1 2.4 -0.9
v 0.1 2.4 -1
v 0.2 2.4 -1
v 0.8 2.4 -1
v 0.9 2.4 -1
v 0.2 2.5 0
v 0.8 2.5 0
v 0.1 2.5 -0.1
v 0.2 2.5 -0.1
v 0.8 2.5 -0.1
v 0.9 2.5 -0.1
v 0 2.5 -0.2
v 0.1 2.5 -0.2
v 0.4 2.5 -0.2
v 0.6 2.5 -0.2
v 0.9 2.5 -0.2
v 1 2.5 -0.2
v 0.3 2.5 -0.3
v 0.4 2.5 -0.3
v 0.6 2.5 -0.3
v 0.7 2.5 -0.3
v 0.2 2.5 -0.4
v 0.3 2.5 -0.4
v 0.4 2.5 -0.4
v 0.6 2.5 -0.4
v 0.7 2.5 -0.4
v 0.8 2.5 -0.4
v 0.2 2.5 -0.6
v 0.3 2.5 -0.6
v 0.4 2.5 -0.6
v 0.6 2.5 -0.6
v 0.7 2.5 -0.6
v 0.8 2.5 -0.6
v 0.3 2.5 -0.7
v 0.4 2.5 -0.7
v 0.6 2.5 -0.7
v 0.7 2.5 -0.7
v 0 2.5 -0.8
v 0.1 2.5 -0.8
v 0.4 2.5 -0.8
v 0.6 2.5 -0.8
v 0.9 2.5 -0.8
v 1 2.5 -0.8
v 0.1 2.5 -0.9
v 0.2 2.5 -0.9
v 0.8 2.5 -0.9
v 0.9 2.5 -0.9
v 0.2 2.5 -1
v 0.8 2.5 -1
v 0.2 2.9 0
v 0.3 2.9 0
v 0.4 2.9 0
v 0.6 2.9 0
v 0.7 2.9 0
v 0.8 2.9 0
v 0.2 2.9 -0.1
v 0.3 2.9 -0.1
v 0.4 2.9 -0.1
v 0.6 2.9 -0.1
v 0.7 2.9 -0.1
v 0.8 2.9 -0.1
v 0 2.9 -0.2
v 0.1 2.9 -0.2
v 0.9 2.9 -0.2
v 1 2.9 -0.2
v 0 2.9 -0.3
v 0.1 2.9 -0.3
v 0.9 2.9 -0.3
v 1 2.9 -0.3
v 0 2.9 -0.4
v 0.1 2.9 -0.4
v 0.9 2.9 -0.4
v 1 2.9 -0.4
v 0 2.9 -0.6
v 0.1 2.9 -0.6
v 0.9 2.9 -0.6
v 1 2.9 -0.6
v 0 2.9 -0.7
v 0.1 2.9 -0.7
v 0.9 2.9 -0.7
v 1 2.9 -0.7
v 0 2.9 -0.8
v 0.1 2.9 -0.8
v 0.9 2.9 -0.8
v 1 2.9 -0.8
v 0.2 2.9 -0.9
v 0.3 2.9 -0.9
v 0.4 2.9 -0.9
v 0.6 2.9 -0.9
v 0.7 2.9 -0.9
v 0.8 2.9 -0.9
v 0.2 2.9 -1
v 0.3 2.9 -1
v 0.4 2.9 -1
v 0.6 2.9 -1
v 0.7 2.9 -1
v 0.8 2.9 -1
v 0.4 2.3 -0.3
v 0.6 2.3 -0.3
v 0.3 2.3 -0.4
v 0.4 2.3 -0.4
v 0.6 2.3 -0.4
v 0.7 2.3 -0.4
v 0.3 2.3 -0.6
v 0.4 2.3 -0.6
v 0.6 2.3 -0.6
v 0.7 2.3 -0.6
v 0.4 2.3 -0.7
v 0.6 2.3 -0.7
v 0.2 2.6 0
v 0.3 2.6 0
v 0.4 2.6 0
v 0.6 2.6 0
v 0.7 2.6 0
v 0.8 2.6 0
v 0.2 2.6 -0.1
v 0.3 2.6 -0.1
v 0.4 2.6 -0.1
v 0.6 2.6 -0.1
v 0.7 2.6 -0.1
v 0.8 2.6 -0.1
v 0 2.6 -0.2
v 0.1 2.6 -0.2
v 0.9 2.6 -0.2
v 1 2.6 -0.2
v 0 2.6 -0.3
v 0.1 2.6 -0.3
v 0.9 2.6 -0.3
v 1 2.6 -0.3
v 0 2.6 -0.4
v 0.1 2.6 -0.4
v 0.9 2.6 -0.4
v 1 2.6 -0.4
v 0 2.6 -0.6
v 0.1 2.6 -0.6
v 0.9 2.6 -0.6
v 1 2.6 -0.6
v 0 2.6 -0.7
v 0.1 2.6 -0.7
v 0.9 2.6 -0.7
v 1 2.6 -0.7
v 0 2.6 -0.8
v 0.1 2.6 -0.8
v 0.9 2.6 -0.8
v 1 2.6 -0.8
v 0.2 2.6 -0.9
v 0.3 2.6 -0.9
v 0.4 2.6 -0.9
v 0.6 2.6 -0.9
v 0.7 2.6 -0.9
v 0.8 2.6 -0.9
v 0.2 2.6 -1
v 0.3 2.6 -1
v 0.4 2.6 -1
v 0.6 2.6 -1
v 0.7 2.6 -1
v 0.8 2.6 -1
v 0.1 3 0
v 0.9 3 0
v 0 3 -0.1
v 0.1 3 -0.1
v 0.9 3 -0.1
v 1 3 -0.1
v 0 3 -0.9
v 0.1 3 -0.9
v 0.9 3 -0.9
v 1 3 -0.9
v 0.1 3 -1
v 0.9 3 -1

# faces
f 5/5/1 2/5/1 1/5/1
f 6/5/1 4/5/1 3/5/1
f 7/5/1 5/5/1 1/5/1
f 7/5/1 6/5/1 5/5/1
f 8/5/1 6/5/1 7/5/1
f 9/5/1 6/5/1 8/5/1
f 10/5/1 6/5/1 9/5/1
f 11/5/1 6/5/1 10/5/1
f 12/5/1 4/5/1 6/5/1
f 12/5/1 6/5/1 11/5/1
f 13/5/1 7/5/1 1/5/1
f 14/5/1 9/5/1 8/5/1
f 15/5/1 9/5/1 14/5/1
f 16/5/1 11/5/1 10/5/1
f 17/5/1 11/5/1 16/5/1
f 18/5/1 4/5/1 12/5/1
f 19/5/1 15/5/1 14/5/1
f 19/5/1 18/5/1 17/5/1
f 19/5/1 17/5/1 16/5/1
f 19/5/1 13/5/1 1/5/1
f 19/5/1 16/5/1 15/5/1
f 19/5/1 14/5/1 13/5/1
f 20/5/1 4/5/1 18/5/1
f 20/5/1 18/5/1 19/5/1
f 31/2/1 26/2/1 25/2/1
f 32/2/1 26/2/1 31/2/1
f 33/1/1 28/1/1 27/1/1
f 34/1/1 28/1/1 33/1/1
f 35/2/1 30/2/1 29/2/1
f 36/2/1 30/2/1 35/2/1
f 37/5/1 22/5/1 21/5/1
f 38/5/1 22/5/1 37/5/1
f 39/5/1 24/5/1 23/5/1
f 40/5/1 24/5/1 39/5/1
f 43/4/1 42/4/1 41/4/1
f 44/4/1 42/4/1 43/4/1
f 48/4/1 46/4/1 45/4/1
f 49/4/1 46/4/1 48/4/1
f 51/3/1 48/3/1 47/3/1
f 52/3/1 48/3/1 51/3/1
f 53/3/1 50/3/1 49/3/1
f 54/3/1 50/3/1 53/3/1
f 59/5/1 56/5/1 55/5/1
f 60/5/1 56/5/1 59/5/1
f 61/5/1 58/5/1 57/5/1
f 62/5/1 58/5/1 61/5/1
f 68/4/1 64/4/1 63/4/1
f 69/4/1 64/4/1 68/4/1
f 70/4/1 66/4/1 65/4/1
f 71/4/1 66/4/1 70/4/1
f 73/4/1 68/4/1 67/4/1
f 74/4/1 68/4/1 73/4/1
f 75/4/1 72/4/1 71/4/1
f 76/4/1 72/4/1 75/4/1
f 81/3/1 78/3/1 77/3/1
f 82/3/1 78/3/1 81/3/1
f 83/3/1 80/3/1 79/3/1
f 84/3/1 80/3/1 83/3/1
f 89/5/1 86/5/1 85/5/1
f 90/5/1 86/5/1 89/5/1
f 91/5/1 88/5/1 87/5/1
f 92/5/1 88/5/1 91/5/1
f 95/4/1 94/4/1 93/4/1
f 96/4/1 94/4/1 95/4/1
f 101/5/1 98/5/1 97/5/1
f 102/5/1 98/5/1 101/5/1
f 103/5/1 100/5/1 99/5/1
f 104/5/1 100/5/1 103/5/1
f 109/5/1 106/5/1 105/5/1
f 110/5/1 106/5/1 109/5/1
f 111/5/1 108/5/1 107/5/1
f 112/5/1 108/5/1 111/5/1
f 117/5/1 114/5/1 113/5/1
f 118/5/1 114/5/1 117/5/1
f 119/5/1 116/5/1 115/5/1
f 120/5/1 116/5/1 119/5/1
f 121/5/2 122/5/2 125/5/2
f 125/5/2 122/5/2 126/5/2
f 123/5/2 124/5/2 127/5/2
f 127/5/2 124/5/2 128/5/2
f 129/5/2 130/5/2 133/5/2
f 133/5/2 130/5/2 134/5/2
f 131/5/2 132/5/2 135/5/2
f 135/5/2 132/5/2 136/5/2
f 137/5/2 138/5/2 141/5/2
f 141/5/2 138/5/2 142/5/2
f 139/5/2 140/5/2 143/5/2
f 143/5/2 140/5/2 144/5/2
f 145/4/2 146/4/2 147/4/2
f 147/4/2 146/4/2 148/4/2
f 149/3/2 150/3/2 153/3/2
f 153/3/2 150/3/2 154/3/2
f 151/3/2 152/3/2 155/3/2
f 155/3/2 152/3/2 156/3/2
f 157/5/2 158/5/2 161/5/2
f 161/5/2 158/5/2 162/5/2
f 159/5/2 160/5/2 163/5/2
f 163/5/2 160/5/2 164/5/2
f 165/4/2 166/4/2 170/4/2
f 170/4/2 166/4/2 171/4/2
f 167/4/2 168/4/2 172/4/2
f 172/4/2 168/4/2 173/4/2
f 169/4/2 170/4/2 175/4/2
f 175/4/2 170/4/2 176/4/2
f 173/4/2 174/4/2 177/4/2
f 177/4/2 174/4/2 178/4/2
f 179/4/2 180/4/2 182/4/2
f 182/4/2 180/4/2 183/4/2
f 181/3/2 182/3/2 185/3/2
f 185/3/2 182/3/2 186/3/2
f 183/3/2 184/3/2 187/3/2
f 187/3/2 184/3/2 188/3/2
f 189/5/2 190/5/2 193/5/2
f 193/5/2 190/5/2 194/5/2
f 191/5/2 192/5/2 195/5/2
f 195/5/2 192/5/2 196/5/2
f 197/4/2 198/4/2 199/4/2
f 199/4/2 198/4/2 200/4/2
f 205/2/2 206/2/2 211/2/2
f 211/2/2 206/2/2 212/2/2
f 207/1/2 208/1/2 213/1/2
f 213/1/2 208/1/2 214/1/2
f 209/2/2 210/2/2 215/2/2
f 215/2/2 210/2/2 216/2/2
f 201/5/2 202/5/2 217/5/2
f 217/5/2 202/5/2 218/5/2
f 203/5/2 204/5/2 219/5/2
f 219/5/2 204/5/2 220/5/2
f 221/5/2 222/5/2 225/5/2
f 223/5/2 224/5/2 226/5/2
f 221/5/2 225/5/2 227/5/2
f 225/5/2 226/5/2 227/5/2
f 227/5/2 226/5/2 228/5/2
f 228/5/2 226/5/2 229/5/2
f 229/5/2 226/5/2 230/5/2
f 230/5/2 226/5/2 231/5/2
f 226/5/2 224/5/2 232/5/2
f 231/5/2 226/5/2 232/5/2
f 221/5/2 227/5/2 233/5/2
f 228/5/2 229/5/2 234/5/2
f 234/5/2 229/5/2 235/5/2
f 230/5/2 231/5/2 236/5/2
f 236/5/2 231/5/2 237/5/2
f 232/5/2 224/5/2 238/5/2
f 234/5/2 235/5/2 239/5/2
f 237/5/2 238/5/2 239/5/2
f 236/5/2 237/5/2 239/5/2
f 221/5/2 233/5/2 239/5/2
f 235/5/2 236/5/2 239/5/2
f 233/5/2 234/5/2 239/5/2
f 238/5/2 224/5/2 240/5/2
f 239/5/2 238/5/2 240/5/2
f 243/5/3 242/5/3 241/5/3
f 244/5/3 242/5/3 243/5/3
f 245/5/3 242/5/3 244/5/3
f 246/5/3 242/5/3 245/5/3
f 247/5/3 245/5/3 244/5/3
f 248/5/3 242/5/3 246/5/3
f 249/5/3 247/5/3 244/5/3
f 249/5/3 248/5/3 247/5/3
f 250/5/3 242/5/3 248/5/3
f 250/5/3 248/5/3 249/5/3
f 251/5/3 249/5/3 244/5/3
f 252/5/3 242/5/3 250/5/3
f 253/5/3 251/5/3 244/5/3
f 253/5/3 252/5/3 251/5/3
f 254/5/3 242/5/3 252/5/3
f 254/5/3 252/5/3 253/5/3
f 256/5/3 253/5/3 244/5/3
f 257/5/3 253/5/3 256/5/3
f 258/5/3 242/5/3 254/5/3
f 259/5/3 257/5/3 256/5/3
f 259/5/3 258/5/3 257/5/3
f 259/5/3 256/5/3 255/5/3
f 260/5/3 242/5/3 258/5/3
f 260/5/3 258/5/3 259/5/3
f 263/5/3 262/5/3 261/5/3
f 264/5/3 262/5/3 263/5/3
f 267/2/3 266/2/3 265/2/3
f 268/2/3 266/2/3 267/2/3
f 271/1/3 270/1/3 269/1/3
f 272/1/3 270/1/3 271/1/3
f 275/2/3 274/2/3 273/2/3
f 276/2/3 274/2/3 275/2/3
f 279/5/3 278/5/3 277/5/3
f 280/5/3 278/5/3 279/5/3
f 283/4/3 282/4/3 281/4/3
f 284/4/3 282/4/3 283/4/3
f 287/5/3 286/5/3 285/5/3
f 288/5/3 286/5/3 287/5/3
f 292/3/3 290/3/3 289/3/3
f 293/3/3 290/3/3 292/3/3
f 294/4/3 292/4/3 291/4/3
f 295/4/3 292/4/3 294/4/3
f 297/3/3 296/3/3 295/3/3
f 298/3/3 296/3/3 297/3/3
f 301/5/3 300/5/3 299/5/3
f 302/5/3 300/5/3 301/5/3
f 306/4/3 304/4/3 303/4/3
f 307/4/3 304/4/3 306/4/3
f 308/4/3 306/4/3 305/4/3
f 309/4/3 306/4/3 308/4/3
f 312/4/3 311/4/3 310/4/3
f 313/4/3 311/4/3 312/4/3
f 315/4/3 314/4/3 313/4/3
f 316/4/3 314/4/3 315/4/3
f 319/5/3 318/5/3 317/5/3
f 320/5/3 318/5/3 319/5/3
f 323/3/3 322/3/3 321/3/3
f 324/3/3 322/3/3 323/3/3
f 327/3/3 326/3/3 325/3/3
f 328/3/3 326/3/3 327/3/3
f 331/5/3 330/5/3 329/5/3
f 332/5/3 330/5/3 331/5/3
f 335/4/3 334/4/3 333/4/3
f 336/4/3 334/4/3 335/4/3
f 341/5/3 338/5/3 337/5/3
f 342/5/3 338/5/3 341/5/3
f 343/5/3 340/5/3 339/5/3
f 344/5/3 340/5/3 343/5/3
f 349/5/3 346/5/3 345/5/3
f 350/5/3 346/5/3 349/5/3
f 351/5/3 348/5/3 347/5/3
f 352/5/3 348/5/3 351/5/3
f 355/5/3 354/5/3 353/5/3
f 356/5/3 354/5/3 355/5/3
f 359/5/3 358/5/3 357/5/3
f 360/5/3 358/5/3 359/5/3
f 361/5/4 362/5/4 363/5/4
f 363/5/4 362/5/4 364/5/4
f 365/5/4 366/5/4 367/5/4
f 367/5/4 366/5/4 368/5/4
f 369/5/4 370/5/4 373/5/4
f 373/5/4 370/5/4 374/5/4
f 371/5/4 372/5/4 375/5/4
f 375/5/4 372/5/4 376/5/4
f 377/5/4 378/5/4 381/5/4
f 381/5/4 378/5/4 382/5/4
f 379/5/4 380/5/4 383/5/4
f 383/5/4 380/5/4 384/5/4
f 385/4/4 386/4/4 387/4/4
f 387/4/4 386/4/4 388/4/4
f 389/5/4 390/5/4 391/5/4
f 391/5/4 390/5/4 392/5/4
f 393/3/4 394/3/4 395/3/4
f 395/3/4 394/3/4 396/3/4
f 397/3/4 398/3/4 399/3/4
f 399/3/4 398/3/4 400/3/4
f 401/5/4 402/5/4 403/5/4
f 403/5/4 402/5/4 404/5/4
f 405/4/4 406/4/4 408/4/4
f 408/4/4 406/4/4 409/4/4
f 407/4/4 408/4/4 410/4/4
f 410/4/4 408/4/4 411/4/4
f 412/4/4 413/4/4 414/4/4
f 414/4/4 413/4/4 415/4/4
f 415/4/4 416/4/4 417/4/4
f 417/4/4 416/4/4 418/4/4
f 419/5/4 420/5/4 421/5/4
f 421/5/4 420/5/4 422/5/4
f 423/3/4 424/3/4 426/3/4
f 426/3/4 424/3/4 427/3/4
f 425/4/4 426/4/4 428/4/4
f 428/4/4 426/4/4 429/4/4
f 429/3/4 430/3/4 431/3/4
f 431/3/4 430/3/4 432/3/4
f 433/5/4 434/5/4 435/5/4
f 435/5/4 434/5/4 436/5/4
f 437/4/4 438/4/4 439/4/4
f 439/4/4 438/4/4 440/4/4
f 441/5/4 442/5/4 443/5/4
f 443/5/4 442/5/4 444/5/4
f 445/2/4 446/2/4 447/2/4
f 447/2/4 446/2/4 448/2/4
f 449/1/4 450/1/4 451/1/4
f 451/1/4 450/1/4 452/1/4
f 453/2/4 454/2/4 455/2/4
f 455/2/4 454/2/4 456/2/4
f 457/5/4 458/5/4 459/5/4
f 459/5/4 458/5/4 460/5/4
f 461/5/4 462/5/4 463/5/4
f 463/5/4 462/5/4 464/5/4
f 464/5/4 462/5/4 465/5/4
f 465/5/4 462/5/4 466/5/4
f 464/5/4 465/5/4 467/5/4
f 466/5/4 462/5/4 468/5/4
f 464/5/4 467/5/4 469/5/4
f 467/5/4 468/5/4 469/5/4
f 468/5/4 462/5/4 470/5/4
f 469/5/4 468/5/4 470/5/4
f 464/5/4 469/5/4 471/5/4
f 470/5/4 462/5/4 472/5/4
f 464/5/4 471/5/4 473/5/4
f 471/5/4 472/5/4 473/5/4
f 472/5/4 462/5/4 474/5/4
f 473/5/4 472/5/4 474/5/4
f 464/5/4 473/5/4 476/5/4
f 476/5/4 473/5/4 477/5/4
f 474/5/4 462/5/4 478/5/4
f 476/5/4 477/5/4 479/5/4
f 477/5/4 478/5/4 479/5/4
f 475/5/4 476/5/4 479/5/4
f 478/5/4 462/5/4 480/5/4
f 479/5/4 478/5/4 480/5/4
f 484/4/5 482/4/5 481/4/5
f 485/4/5 482/4/5 484/4/5
f 487/4/5 484/4/5 483/4/5
f 487/4/5 486/4/5 485/4/5
f 487/4/5 485/4/5 484/4/5
f 488/4/5 486/4/5 487/4/5
f 489/4/5 486/4/5 488/4/5
f 490/4/5 486/4/5 489/4/5
f 491/4/5 489/4/5 488/4/5
f 492/4/5 489/4/5 491/4/5
f 496/4/5 494/4/5 493/4/5
f 497/4/5 494/4/5 496/4/5
f 500/3/5 496/3/5 495/3/5
f 501/3/5 496/3/5 500/3/5
f 502/3/5 498/3/5 497/3/5
f 503/3/5 498/3/5 502/3/5
f 505/4/5 500/4/5 499/4/5
f 506/4/5 500/4/5 505/4/5
f 509/4/5 504/4/5 503/4/5
f 510/4/5 504/4/5 509/4/5
f 511/3/5 507/3/5 506/3/5
f 512/3/5 507/3/5 511/3/5
f 513/3/5 509/3/5 508/3/5
f 514/3/5 509/3/5 513/3/5
f 515/4/5 513/4/5 512/4/5
f 516/4/5 513/4/5 515/4/5
f 522/5/5 518/5/5 517/5/5
f 523/5/5 518/5/5 522/5/5
f 524/5/5 520/5/5 519/5/5
f 525/5/5 520/5/5 524/5/5
f 527/5/5 522/5/5 521/5/5
f 528/5/5 522/5/5 527/5/5
f 529/5/5 526/5/5 525/5/5
f 530/5/5 526/5/5 529/5/5
f 535/5/5 532/5/5 531/5/5
f 536/5/5 532/5/5 535/5/5
f 539/5/5 534/5/5 533/5/5
f 540/5/5 534/5/5 539/5/5
f 541/5/5 537/5/5 536/5/5
f 542/5/5 537/5/5 541/5/5
f 543/5/5 539/5/5 538/5/5
f 544/5/5 539/5/5 543/5/5
f 548/5/5 546/5/5 545/5/5
f 549/5/5 546/5/5 548/5/5
f 552/4/5 548/4/5 547/4/5
f 552/4/5 550/4/5 549/4/5
f 552/4/5 549/4/5 548/4/5
f 553/4/5 550/4/5 552/4/5
f 554/4/5 550/4/5 553/4/5
f 555/4/5 550/4/5 554/4/5
f 557/4/5 553/4/5 552/4/5
f 558/4/5 553/4/5 557/4/5
f 559/4/5 555/4/5 554/4/5
f 560/4/5 555/4/5 559/4/5
f 561/4/5 557/4/5 552/4/5
f 562/4/5 557/4/5 561/4/5
f 563/1/5 559/1/5 558/1/5
f 564/1/5 559/1/5 563/1/5
f 565/4/5 555/4/5 560/4/5
f 566/4/5 555/4/5 565/4/5
f 567/4/5 561/4/5 552/4/5
f 568/1/5 564/1/5 563/1/5
f 568/1/5 565/1/5 564/1/5
f 568/1/5 563/1/5 562/1/5
f 569/1/5 565/1/5 568/1/5
f 570/1/5 565/1/5 569/1/5
f 571/1/5 565/1/5 570/1/5
f 572/4/5 555/4/5 566/4/5
f 573/4/5 568/4/5 567/4/5
f 574/1/5 570/1/5 569/1/5
f 575/1/5 570/1/5 574/1/5
f 576/4/5 572/4/5 571/4/5
f 577/5/5 552/5/5 551/5/5
f 578/4/5 567/4/5 552/4/5
f 578/5/5 552/5/5 577/5/5
f 578/4/5 573/4/5 567/4/5
f 578/4/5 574/4/5 573/4/5
f 579/4/5 574/4/5 578/4/5
f 580/4/5 576/4/5 575/4/5
f 581/5/5 556/5/5 555/5/5
f 581/4/5 572/4/5 576/4/5
f 581/4/5 576/4/5 580/4/5
f 581/4/5 555/4/5 572/4/5
f 582/5/5 556/5/5 581/5/5
f 583/4/5 579/4/5 578/4/5
f 583/4/5 580/4/5 579/4/5
f 583/4/5 581/4/5 580/4/5
f 584/4/5 581/4/5 583/4/5
f 585/4/5 581/4/5 584/4/5
f 586/4/5 581/4/5 585/4/5
f 587/5/5 585/5/5 584/5/5
f 588/5/5 585/5/5 587/5/5
f 595/5/5 590/5/5 589/5/5
f 596/5/5 590/5/5 595/5/5
f 597/5/5 592/5/5 591/5/5
f 598/5/5 592/5/5 597/5/5
f 599/5/5 594/5/5 593/5/5
f 600/5/5 594/5/5 599/5/5
f 605/5/5 602/5/5 601/5/5
f 606/5/5 602/5/5 605/5/5
f 607/5/5 604/5/5 603/5/5
f 608/5/5 604/5/5 607/5/5
f 613/5/5 610/5/5 609/5/5
f 614/5/5 610/5/5 613/5/5
f 615/5/5 612/5/5 611/5/5
f 616/5/5 612/5/5 615/5/5
f 621/5/5 618/5/5 617/5/5
f 622/5/5 618/5/5 621/5/5
f 623/5/5 620/5/5 619/5/5
f 624/5/5 620/5/5 623/5/5
f 631/5/5 626/5/5 625/5/5
f 632/5/5 626/5/5 631/5/5
f 633/5/5 628/5/5 627/5/5
f 634/5/5 628/5/5 633/5/5
f 635/5/5 630/5/5 629/5/5
f 636/5/5 630/5/5 635/5/5
f 637/1/6 638/1/6 640/1/6
f 640/1/6 638/1/6 641/1/6
f 639/1/6 640/1/6 643/1/6
f 641/1/6 642/1/6 643/1/6
f 640/1/6 641/1/6 643/1/6
f 643/1/6 642/1/6 644/1/6
f 644/1/6 642/1/6 645/1/6
f 645/1/6 642/1/6 646/1/6
f 644/1/6 645/1/6 647/1/6
f 647/1/6 645/1/6 648/1/6
f 649/5/6 650/5/6 655/5/6
f 655/5/6 650/5/6 656/5/6
f 651/5/6 652/5/6 657/5/6
f 657/5/6 652/5/6 658/5/6
f 653/5/6 654/5/6 659/5/6
f 659/5/6 654/5/6 660/5/6
f 661/5/6 662/5/6 665/5/6
f 665/5/6 662/5/6 666/5/6
f 663/5/6 664/5/6 667/5/6
f 667/5/6 664/5/6 668/5/6
f 669/5/6 670/5/6 673/5/6
f 673/5/6 670/5/6 674/5/6
f 671/5/6 672/5/6 675/5/6
f 675/5/6 672/5/6 676/5/6
f 677/5/6 678/5/6 681/5/6
f 681/5/6 678/5/6 682/5/6
f 679/5/6 680/5/6 683/5/6
f 683/5/6 680/5/6 684/5/6
f 685/5/6 686/5/6 691/5/6
f 691/5/6 686/5/6 692/5/6
f 687/5/6 688/5/6 693/5/6
f 693/5/6 688/5/6 694/5/6
f 689/5/6 690/5/6 695/5/6
f 695/5/6 690/5/6 696/5/6
f 697/5/6 698/5/6 700/5/6
f 700/5/6 698/5/6 701/5/6
f 699/5/6 700/5/6 703/5/6
f 701/5/6 702/5/6 703/5/6
f 700/5/6 701/5/6 703/5/6
f 703/5/6 702/5/6 704/5/6
f 704/5/6 702/5/6 705/5/6
f 705/5/6 702/5/6 706/5/6
f 704/5/6 705/5/6 707/5/6
f 707/5/6 705/5/6 708/5/6
